<svg width="117" height="96" viewBox="0 0 117 96" fill="none" xmlns="http://www.w3.org/2000/svg">
<path d="M93.3014 33.711C95.2959 28.2213 96.7242 21.6799 97.299 13.8853C97.299 13.8853 81.3513 17.6109 69.62 28.3457C68.6249 20.1948 65.2449 10.7048 57.82 0.00429153C57.82 0.00429153 47.813 12.8809 45.4153 28.5561C33.6668 17.6581 17.5089 13.8853 17.5089 13.8853C18.0837 21.6799 19.5163 28.2213 21.5066 33.711C10.6203 32.5822 1.6084 34.4106 1.6084 34.4106C24.6807 76.3584 57.404 62.1254 57.404 62.1254C57.3868 62.0568 57.3697 61.9924 57.3525 61.928C57.3825 61.9537 57.4083 61.9795 57.4383 62.001C57.4297 62.0439 57.4168 62.0825 57.404 62.1254C57.404 62.1254 57.5155 62.1726 57.73 62.2585C57.76 62.2842 57.79 62.3143 57.82 62.34C57.82 62.34 57.8329 62.3272 57.8544 62.31C61.8649 63.8251 91.7143 73.474 113.2 34.4149C113.2 34.4149 104.188 32.5864 93.3014 33.7153V33.711ZM92.0918 20.1348C91.6886 25.6202 90.7192 30.2772 89.3766 34.2432C82.3464 35.4322 74.9173 38.0032 68.8307 43.1324C69.6114 39.8875 70.0532 36.2563 69.9245 32.2559C78.8678 23.2251 92.0918 20.1305 92.0918 20.1305V20.1348ZM61.9249 50.2446C62.1008 44.5445 64.0052 39.8317 66.7847 35.9601C66.3129 42.1581 64.0696 46.9739 61.9249 50.2446ZM88.004 37.7714C81.3985 52.704 69.0195 55.9146 64.3184 56.6014C68.479 43.9994 78.7262 39.3038 88.004 37.7714ZM66.7847 31.1786C61.3244 37.1576 57.3525 44.9738 57.404 55.0304C57.404 55.0304 57.404 55.0304 57.3997 55.0304C57.4512 45.0339 53.5221 37.2564 48.1133 31.2902C49.4644 18.7441 57.6999 8.14232 57.6999 8.14232C63.8079 16.9499 66.3043 24.6716 66.7847 31.1829V31.1786ZM47.9503 35.8657C50.7384 39.7244 52.6643 44.4244 52.8702 50.1072C49.5331 45.5275 48.1433 40.6343 47.9503 35.8657ZM22.7076 20.1305C22.7076 20.1305 36.0431 23.2509 44.9864 32.3675C44.7547 35.8271 44.9478 39.381 45.7284 42.9264C39.6891 37.9302 32.3586 35.4107 25.4227 34.2389C24.0759 30.2729 23.1108 25.6116 22.7076 20.1305ZM50.481 56.5971C45.7799 55.9103 33.4052 52.6954 26.7953 37.7671C36.0731 39.2995 46.3204 43.9951 50.481 56.5971ZM8.93886 37.9217C8.93886 37.9217 15.1884 36.6512 22.9478 37.295C29.1373 51.2146 39.1314 57.3997 46.6421 60.1424C38.6982 61.6104 21.8283 61.3528 8.94315 37.9217H8.93886ZM68.1616 60.1424C75.6722 57.3954 85.6621 51.2103 91.8559 37.295C99.6152 36.6512 105.865 37.9217 105.865 37.9217C92.9754 61.3528 76.1097 61.6104 68.1659 60.1424H68.1616Z" fill="#C7A78A"/>
<path d="M0 72.7486H3.28991V81.7408H9.03761V84.6252H0V72.7486Z" fill="white"/>
<path d="M9.35938 78.7191V78.6848C9.35938 75.2725 12.1045 72.5083 15.7676 72.5083C19.4307 72.5083 22.1459 75.2424 22.1459 78.6504V78.6848C22.1459 82.0971 19.4007 84.8612 15.7376 84.8612C12.0745 84.8612 9.35938 82.1271 9.35938 78.7191ZM18.7873 78.7191V78.6848C18.7873 76.9722 17.5477 75.4785 15.7333 75.4785C13.9189 75.4785 12.7308 76.9378 12.7308 78.6504V78.6848C12.7308 80.3974 13.9704 81.891 15.7676 81.891C17.5649 81.891 18.7873 80.4317 18.7873 78.7191Z" fill="white"/>
<path d="M26.2462 75.633H22.686V72.7486H33.0962V75.633H29.5361V84.6252H26.2462V75.633Z" fill="white"/>
<path d="M34.3877 79.4187V72.7486H37.7291V79.35C37.7291 81.0626 38.5955 81.8782 39.9166 81.8782C41.2378 81.8782 42.1042 81.097 42.1042 79.4359V72.7486H45.4456V79.3329C45.4456 83.1658 43.258 84.8484 39.8823 84.8484C36.5066 84.8484 34.3877 83.1358 34.3877 79.4187Z" fill="white"/>
<path d="M46.492 82.8611L48.3235 80.672C49.4945 81.6035 50.7985 82.0971 52.171 82.0971C53.0546 82.0971 53.5265 81.7923 53.5265 81.2815V81.2472C53.5265 80.7536 53.1361 80.4832 51.5234 80.1098C48.9969 79.5346 47.0453 78.8221 47.0453 76.3756V76.3412C47.0453 74.135 48.7911 72.5383 51.6392 72.5383C53.6594 72.5383 55.2336 73.0834 56.5247 74.1178L54.8819 76.4442C53.7967 75.6802 52.6086 75.2724 51.5577 75.2724C50.7599 75.2724 50.3695 75.6115 50.3695 76.0365V76.0708C50.3695 76.6116 50.777 76.852 52.4198 77.2254C55.1521 77.8177 56.8464 78.7019 56.8464 80.9253V80.9596C56.8464 83.3847 54.9291 84.8269 52.0467 84.8269C49.9449 84.8269 47.9418 84.1659 46.4834 82.8568L46.492 82.8611Z" fill="white"/>
<path d="M62.7357 78.7191V78.6848C62.7357 75.2252 65.4509 72.5083 69.1268 72.5083C71.2114 72.5083 72.687 73.1521 73.9437 74.238L72.0093 76.5644C71.16 75.8519 70.315 75.4441 69.144 75.4441C67.4325 75.4441 66.1071 76.8863 66.1071 78.7019V78.7363C66.1071 80.6549 67.4454 82.0284 69.3284 82.0284C70.1262 82.0284 70.7353 81.8567 71.2286 81.5348V80.0926H68.8866V77.6847H74.3469V83.0285C73.0945 84.0629 71.3444 84.8612 69.1912 84.8612C65.4938 84.8612 62.7314 82.316 62.7314 78.7191H62.7357Z" fill="white"/>
<path d="M76.1826 72.7486H79.4725V81.7408H85.2202V84.6252H76.1826V72.7486Z" fill="white"/>
<path d="M85.542 78.7191V78.6848C85.542 75.2725 88.2915 72.5083 91.9545 72.5083C95.6176 72.5083 98.3328 75.2424 98.3328 78.6504V78.6848C98.3328 82.0971 95.5833 84.8612 91.9245 84.8612C88.2657 84.8612 85.5463 82.1271 85.5463 78.7191H85.542ZM94.9699 78.7191V78.6848C94.9699 76.9722 93.7303 75.4785 91.9159 75.4785C90.1015 75.4785 88.9134 76.9378 88.9134 78.6504V78.6848C88.9134 80.3974 90.153 81.891 91.9503 81.891C93.7475 81.891 94.9699 80.4317 94.9699 78.7191Z" fill="white"/>
<path d="M98.5645 72.7486H102.043L104.111 79.6205L106.401 72.7143H109.232L111.523 79.6205L113.59 72.7486H117L113.032 84.711H110.167L107.774 77.8735L105.397 84.711H102.532L98.5645 72.7486Z" fill="white"/>
<path d="M3.46561 91.5657H1.02498V93.0036H3.20396V93.4199H1.02498V95.1754H0.570312V91.145H3.46561V91.5657Z" fill="white"/>
<path d="M6.90975 91.145V95.1754H6.45508V91.145H6.90975Z" fill="white"/>
<path d="M13.1251 91.145H13.5669V95.1754H13.2023L10.6029 91.8704V95.1754H10.1611V91.145H10.5858L13.1251 94.3771V91.145Z" fill="white"/>
<path d="M20.1597 93.9521C20.0567 94.2011 19.9109 94.4157 19.7179 94.596C19.5291 94.7762 19.3018 94.9179 19.0402 95.0209C18.7785 95.1239 18.4868 95.1754 18.1737 95.1754H16.7754V91.145H18.1737C18.4868 91.145 18.7785 91.1965 19.0402 91.2996C19.3018 91.4026 19.5291 91.5442 19.7179 91.7245C19.9066 91.9048 20.0524 92.1194 20.1597 92.364C20.2626 92.6087 20.3141 92.8748 20.3141 93.1581C20.3141 93.4414 20.2626 93.7075 20.1597 93.9564V93.9521ZM19.7264 92.54C19.6492 92.3426 19.5377 92.1752 19.3919 92.0292C19.246 91.8833 19.0745 91.7717 18.8643 91.6901C18.6584 91.6086 18.4268 91.5657 18.1737 91.5657H17.2301V94.7548H18.1737C18.4268 94.7548 18.6584 94.7162 18.8643 94.6346C19.0702 94.5531 19.246 94.4415 19.3919 94.2955C19.5334 94.1539 19.645 93.9822 19.7264 93.7933C19.8037 93.6002 19.8423 93.3942 19.8423 93.1667C19.8423 92.9392 19.8037 92.7332 19.7264 92.54Z" fill="white"/>
<path d="M28.8629 95.1754H28.4082V93.5787L26.7354 91.145H27.2887L28.6441 93.1624L30.0124 91.145H30.54L28.8671 93.5744V95.1754H28.8629Z" fill="white"/>
<path d="M36.772 93.9521C36.6734 94.2054 36.5318 94.4243 36.3517 94.6174C36.1715 94.8106 35.9528 94.9608 35.6997 95.0767C35.4466 95.1926 35.1678 95.2484 34.859 95.2484C34.5502 95.2484 34.2714 95.1926 34.0226 95.081C33.7695 94.9694 33.555 94.8192 33.3749 94.6303C33.1947 94.4415 33.0575 94.2183 32.9588 93.9693C32.8602 93.7204 32.813 93.45 32.813 93.171C32.813 92.892 32.8645 92.6259 32.9631 92.3726C33.0618 92.1237 33.2033 91.9005 33.3835 91.7073C33.5636 91.5142 33.7824 91.3639 34.0354 91.248C34.2885 91.1365 34.5673 91.0764 34.8762 91.0764C35.185 91.0764 35.4638 91.1322 35.7126 91.2438C35.9656 91.3554 36.1801 91.5056 36.3603 91.6944C36.5404 91.8833 36.6777 92.1065 36.7763 92.3554C36.875 92.6044 36.9222 92.8748 36.9222 93.1538C36.9222 93.4328 36.8707 93.6989 36.772 93.9521ZM36.3302 92.5142C36.253 92.3125 36.1415 92.1322 36 91.9863C35.8584 91.8361 35.6911 91.7159 35.4981 91.6301C35.3051 91.5399 35.0906 91.497 34.8633 91.497C34.636 91.497 34.4215 91.5399 34.2285 91.6258C34.0354 91.7116 33.8682 91.8318 33.7309 91.982C33.5936 92.1322 33.4821 92.3082 33.4049 92.51C33.3277 92.7117 33.2891 92.9263 33.2891 93.1581C33.2891 93.3899 33.3277 93.6045 33.4049 93.8105C33.4821 94.0122 33.5936 94.1882 33.7352 94.3384C33.8767 94.4887 34.044 94.6088 34.237 94.6947C34.4301 94.7848 34.6445 94.8277 34.8719 94.8277C35.0992 94.8277 35.3137 94.7848 35.5067 94.699C35.6997 94.6131 35.867 94.493 36.0042 94.3427C36.1415 94.1925 36.2487 94.0165 36.3302 93.8148C36.4074 93.6131 36.4503 93.3984 36.4503 93.1667C36.4503 92.9349 36.4117 92.7203 36.3302 92.5142Z" fill="white"/>
<path d="M43.245 93.4542C43.245 93.7504 43.2064 94.0079 43.1249 94.2311C43.0434 94.4543 42.9319 94.6389 42.7817 94.7891C42.6359 94.9393 42.4557 95.0509 42.2542 95.1239C42.0483 95.1969 41.8209 95.2355 41.5679 95.2355C41.3148 95.2355 41.0917 95.1969 40.8859 95.1239C40.68 95.0509 40.5041 94.9393 40.3583 94.7891C40.2124 94.6432 40.0966 94.4586 40.0151 94.2397C39.9336 94.0208 39.895 93.7676 39.895 93.4843V91.1407H40.3497V93.4542C40.3497 93.892 40.4569 94.2268 40.6757 94.4629C40.8944 94.699 41.1947 94.8149 41.5807 94.8149C41.9668 94.8149 42.2499 94.7033 42.4686 94.4801C42.6874 94.2569 42.7946 93.9264 42.7946 93.4843V91.1407H43.2493V93.45L43.245 93.4542Z" fill="white"/>
<path d="M49.1684 95.1754L48.0017 93.6088H46.8521V95.1754H46.3975V91.145H48.1303C48.3534 91.145 48.555 91.1751 48.7309 91.2309C48.911 91.2867 49.0611 91.3682 49.1898 91.4755C49.3185 91.5828 49.4129 91.7073 49.4815 91.8575C49.5501 92.0035 49.5844 92.1709 49.5844 92.3512C49.5844 92.5185 49.5587 92.6731 49.5029 92.8018C49.4472 92.9349 49.3743 93.0508 49.2756 93.1495C49.1769 93.2482 49.0611 93.3298 48.9282 93.3942C48.7952 93.4585 48.6494 93.5058 48.4907 93.5315L49.726 95.1754H49.1684ZM48.8552 91.776C48.6751 91.6344 48.422 91.5657 48.0917 91.5657H46.8436V93.2053H48.0832C48.2333 93.2053 48.3706 93.1881 48.4992 93.1495C48.6279 93.1109 48.7351 93.0551 48.8295 92.9864C48.9196 92.9134 48.9925 92.8276 49.044 92.7246C49.0954 92.6216 49.1212 92.5014 49.1212 92.3726C49.1212 92.1194 49.0311 91.9219 48.851 91.7803L48.8552 91.776Z" fill="white"/>
<path d="M56.919 91.145V95.1754H56.4644V91.145H56.919Z" fill="white"/>
<path d="M63.1344 91.145H63.5762V95.1754H63.2159L60.6166 91.8704V95.1754H60.1748V91.145H60.5995L63.1387 94.3771V91.145H63.1344Z" fill="white"/>
<path d="M69.7487 91.145H70.1905V95.1754H69.8302L67.2309 91.8704V95.1754H66.7891V91.145H67.2137L69.753 94.3771V91.145H69.7487Z" fill="white"/>
<path d="M76.3158 91.5571H73.858V92.9349H76.0541V93.3512H73.858V94.7634H76.3415V95.1797H73.4033V91.1493H76.3158V91.5657V91.5571Z" fill="white"/>
<path d="M82.102 95.1754L80.9353 93.6088H79.7857V95.1754H79.3311V91.145H81.0639C81.287 91.145 81.4886 91.1751 81.6645 91.2309C81.8446 91.2867 81.9947 91.3682 82.1234 91.4755C82.2521 91.5828 82.3465 91.7073 82.4151 91.8575C82.4837 92.0035 82.518 92.1709 82.518 92.3512C82.518 92.5185 82.4923 92.6731 82.4365 92.8018C82.3808 92.9349 82.3079 93.0508 82.2092 93.1495C82.1105 93.2482 81.9947 93.3298 81.8618 93.3942C81.7288 93.4585 81.583 93.5058 81.4242 93.5315L82.6596 95.1754H82.102ZM81.7888 91.776C81.6087 91.6344 81.3556 91.5657 81.0253 91.5657H79.7771V93.2053H81.0168C81.1669 93.2053 81.3041 93.1881 81.4328 93.1495C81.5615 93.1109 81.6687 93.0551 81.7631 92.9864C81.8532 92.9134 81.9261 92.8276 81.9776 92.7246C82.029 92.6216 82.0548 92.5014 82.0548 92.3726C82.0548 92.1194 81.9647 91.9219 81.7846 91.7803L81.7888 91.776Z" fill="white"/>
<path d="M89.3594 91.145H89.814V94.7548H92.0831V95.1754H89.3637V91.145H89.3594Z" fill="white"/>
<path d="M95.4888 91.145V95.1754H95.0342V91.145H95.4888Z" fill="white"/>
<path d="M101.533 95.0638C101.258 95.184 100.949 95.2441 100.61 95.2441C100.293 95.2441 100.006 95.1883 99.7569 95.081C99.5081 94.9737 99.2894 94.8278 99.1135 94.6389C98.9333 94.45 98.8004 94.2311 98.706 93.9779C98.6116 93.7247 98.5645 93.4542 98.5645 93.1667C98.5645 92.8791 98.6116 92.6259 98.7103 92.3726C98.8089 92.1194 98.9462 91.8962 99.1221 91.703C99.2979 91.5099 99.5124 91.3596 99.7569 91.2438C100.006 91.1322 100.28 91.0721 100.585 91.0721C100.752 91.0721 100.906 91.0849 101.048 91.1064C101.19 91.1279 101.318 91.1622 101.438 91.2094C101.558 91.2566 101.67 91.3124 101.777 91.3811C101.884 91.4498 101.987 91.5227 102.086 91.6086L101.794 91.952C101.717 91.8833 101.636 91.8189 101.554 91.7631C101.468 91.7073 101.378 91.6601 101.28 91.6172C101.181 91.5743 101.074 91.5442 100.958 91.5228C100.842 91.5013 100.709 91.4884 100.568 91.4884C100.345 91.4884 100.139 91.5313 99.9499 91.6215C99.7612 91.7116 99.6025 91.8275 99.4652 91.9777C99.3322 92.128 99.225 92.3039 99.1478 92.5057C99.0706 92.7074 99.032 92.922 99.032 93.1495C99.032 93.3899 99.0706 93.6173 99.1435 93.8234C99.2164 94.0294 99.3237 94.2054 99.4652 94.3556C99.6025 94.5058 99.7698 94.6217 99.9671 94.7076C100.164 94.7934 100.383 94.832 100.628 94.832C100.859 94.832 101.074 94.7934 101.28 94.7119C101.481 94.6346 101.653 94.5359 101.79 94.4243V93.4199H100.563V93.0164H102.228V94.6174C102.039 94.7848 101.807 94.9308 101.533 95.0509V95.0638Z" fill="white"/>
<path d="M105.774 93.3598V95.1754H105.32V91.145H105.774V92.9349H108.099V91.145H108.554V95.1754H108.099V93.3598H105.774Z" fill="white"/>
<path d="M113.285 95.1754H112.831V91.5657H111.479V91.145H114.641V91.5657H113.29V95.1754H113.285Z" fill="white"/>
</svg>
